<?xml version="1.0" encoding="iso-8859-1"?>
<!-- Uploaded to: SVG Repo, www.svgrepo.com, Generator: SVG Repo Mixer Tools -->
<svg height="800px" width="800px" version="1.1" id="Layer_1" xmlns="http://www.w3.org/2000/svg" xmlns:xlink="http://www.w3.org/1999/xlink" 
	 viewBox="0 0 474.085 474.085" xml:space="preserve">
<circle style="fill:#ACDDDE;" cx="237.042" cy="236.966" r="236.966"/>
<path style="fill:#B9CD33;" d="M237.016,474.085c100.781,0,186.811-62.944,221.071-151.635c-61.87-37.302-142.318-55-230.279-55
	c-80.886,0-155.414,14.982-214.998,46.39C44.712,407.044,133.006,474.085,237.016,474.085z"/>
<g>
	<path style="fill:#57803A;" d="M79.174,194.235c0-16.628,14.073-30.11,42.222-30.11s42.222,13.485,42.222,30.11
		c0,16.632-15.251,30.117-42.222,30.117S79.174,210.867,79.174,194.235z"/>
	<path style="fill:#57803A;" d="M137.003,178.635c0-21.807,18.458-39.491,55.371-39.491c36.92,0,55.371,17.687,55.371,39.491
		c0,21.807-19.992,39.498-55.371,39.498S137.003,200.442,137.003,178.635z"/>
	<path style="fill:#57803A;" d="M202.82,178.082c0-24.647,20.86-44.632,62.581-44.632s62.581,19.985,62.581,44.632
		s-22.6,44.635-62.581,44.635S202.82,202.729,202.82,178.082z"/>
	<path style="fill:#57803A;" d="M285.711,212.951c0-25.927,21.942-46.948,65.829-46.948s65.833,21.021,65.833,46.948
		s-23.775,46.948-65.833,46.948C309.49,259.899,285.711,238.878,285.711,212.951z"/>
</g>
<g>
	<path style="fill:#49341B;" d="M169.889,371.093c0,0-15.3-32.261,0.595-56.456c15.899-24.194,40.404-37.485,61.833-61.672
		s53.964-91.677,59.266-91.677s9.605,4.303,9.605,9.605c0,0-29.092,60.695-44.909,86.33s-40.007,47.453-44.28,58.839
		c-4.269,11.386,0.58,55.034,0.58,55.034C212.582,378.954,169.889,378.954,169.889,371.093z"/>
	<path style="fill:#49341B;" d="M232.534,282.997c-4.116,0-8.157-2.002-10.597-5.691L115.36,188.282
		c-2.571-3.891-1.508-9.134,2.384-11.708c3.88-2.578,125.364,86.73,125.364,86.73c3.869,5.845,2.268,13.717-3.588,17.583
		C237.372,282.32,234.932,282.997,232.534,282.997z"/>
	<path style="fill:#49341B;" d="M150.327,208.734c0-2.649,1.291-5.253,3.663-6.825l29.077-32.112c2.507-1.65,5.882-0.965,7.54,1.534
		c1.661,2.503-27.603,44.209-27.603,44.209c-3.76,2.496-8.831,1.463-11.319-2.309C150.761,211.847,150.327,210.279,150.327,208.734z
		"/>
	<path style="fill:#49341B;" d="M200.16,313.271c4.131,1.635,8.976,1.235,12.894-1.489l162.471-76.152
		c4.12-2.874,5.122-8.539,2.234-12.666c-2.877-4.12-180.446,66.409-180.446,66.409c-6.193,4.314-7.704,12.827-3.349,19.023
		C195.561,310.675,197.739,312.321,200.16,313.271z"/>
	<path style="fill:#49341B;" d="M348.027,237.62c0-2.653-1.291-5.253-3.663-6.829l-29.077-32.112
		c-2.507-1.65-5.878-0.965-7.54,1.534s27.599,44.205,27.599,44.205c3.768,2.496,8.834,1.463,11.326-2.309
		C347.596,240.734,348.027,239.166,348.027,237.62z"/>
	<path style="fill:#49341B;" d="M240.294,247.031c-2.668-2.679-14.66-81.481-14.66-81.481c0.868-4.191,4.958-6.9,9.137-6.043
		c4.191,0.838,25.148,81.6,25.148,81.6c-1.287,6.305-7.427,10.372-13.736,9.085C243.864,249.729,241.851,248.584,240.294,247.031z"
		/>
</g>
</svg>